# xmcd
#
# Track frame offsets: 
#        150
#        14733
#        28742
#        41645
#        54786
#        65288
#        83470
#        100867
#        112355
#        126600
#        139813
#
# Disc length: 2101 seconds
#
# Revision: 0
# Processed by: cddbd v1.5.2PL0 Copyright (c) Steve Scherf et al.
# Submitted via: ExactAudioCopy v0.95b3
#
DISCID=9908330b
DTITLE=Laneway - If You Dont Need It Let It Go
DYEAR=2009
DGENRE=Country
TTITLE0=Woody Allen's Nephew
TTITLE1=Won't Be Long
TTITLE2=Sharp Love
TTITLE3=Die With You
TTITLE4=Letter Writing
TTITLE5=Restless Vagabonds
TTITLE6=Button Undone
TTITLE7=The Quail
TTITLE8=The Red Lantern
TTITLE9=Lorraine
TTITLE10=Wishing To Go
EXTD=
EXTT0=
EXTT1=
EXTT2=
EXTT3=
EXTT4=
EXTT5=
EXTT6=
EXTT7=
EXTT8=
EXTT9=
EXTT10=
PLAYORDER=
